<svg width="199" height="288" viewBox="0 0 199 288" fill="none" xmlns="http://www.w3.org/2000/svg">
<path d="M160 265V272.5L154.5 276L147.5 280.5L137 284L125 286.5L110.5 288L97.5 286.5L82.5 283.5C78 282.167 68.9 279.4 68.5 279C68 278.5 68.5 275 68 275C67.6 275 67.1667 268.667 67 265.5L65 258.5C63.6667 256.667 60.9 253 60.5 253C60.1 253 56.3333 249.333 54.5 247.5L46 236.5L35 222.5C33.1667 220.167 29.4 215.5 29 215.5C28.6 215.5 24.1667 208.833 22 205.5C20.8333 202.167 18.4 195.5 18 195.5C17.6 195.5 16.5 189.833 16 187L14 181L9 169.5C7.66667 165.833 4.9 158.4 4.5 158C4 157.5 4.5 154 4.5 153.5V148V141C4.5 140.6 4.16667 137.833 4 136.5C3 132.333 0.9 124 0.5 124C0.1 124 0 119.333 0 117L3.5 114C6 113.833 11.1 113.6 11.5 114C11.9 114.4 16.3333 116.833 18.5 118L24 124.5L28 131L31.5 140L32 147.5C32.6667 148.333 34 150.1 34 150.5C34 151 36.5 156 37 156.5C37.4 156.9 38.5 160 39 161.5L41.5 169L44 172H47C48 170.833 50.1 168.5 50.5 168.5C50.9 168.5 51.6667 164.167 52 162L53 155.5C53.5 151.833 54.5 144.4 54.5 144C54.5 143.5 55.5 136.5 55.5 136V128L55 119C54.8333 116.5 54.5 111.4 54.5 111C54.5 110.5 54 103.5 53.5 103.5C53 103.5 53 97 52.5 96.5C52 96 52 91 51.5 90.5C51.1 90.1 51 86.3333 51 84.5C51 80.3333 51.1 71.9 51.5 71.5C52 71 52 63.5 52 63C52 62.6 51.6667 59.5 51.5 58L51 49.5L51.5 42V36L52.5 28.5L55.5 22.5L59.5 20.5L63.5 19.5L68 21L70.5 23L73.5 28.5L75.5 36L76 43V51V63.5L77.5 69L79 76.5L80 83L81 89.5L82 96.5L83 105.5L83.5 111.5L84.5 115L86.5 117.5L89 118L91.5 117L93 113C93.1667 111 93.4 106.9 93 106.5C92.6 106.1 92.5 100.667 92.5 98V91C92.1667 88.1667 91.5 82.4 91.5 82C91.5 81.6 91.1667 77.8333 91 76L92 67.5L92.5 55.5L93.5 48V41V31.5L93 24.5V15.5L94.5 9.5L97 5.5L100.5 1.5L106 0L111 1L115.5 4L117.5 10L118 16.5C118.167 19.1667 118.5 24.6 118.5 25C118.5 25.5 118 31.5 118 32V43.5L118.5 52.5C118.667 54.6667 119.1 59 119.5 59C120 59 121 67.5 121 68V75.5V80.5V91C121 91.5 120.5 100 120.5 100.5C120.5 100.9 120.833 106.333 121 109L121.5 114.5L124 117.5L125.5 118.5C126.167 117.5 127.6 115.4 128 115C128.4 114.6 128.833 110.5 129 108.5V102.5L129.5 90.5C129.833 88.8333 130.5 85.3 130.5 84.5C130.5 83.5 131.5 78 132 77.5C132.4 77.1 133.5 72.3333 134 70L135 61L135.5 52.5L136 44C136.167 40.8333 136.5 34.4 136.5 34V28C136.5 27.6 137.167 23.1667 137.5 21L140.5 17L145.5 14.5L151 15.5L155 17L158 23.5L159 28.5V38.5V45.5L158.5 52V60V68L158 73V81V89.5L157.5 95.5L156.5 100.5L155 107L154.5 115L153.5 122L154 127.5L155 131L156 132.5L157.5 133L159.5 132.5L161.5 130.5L163.5 125L166 117.5L168 109.5L171 99L174 92L174.5 88L175.5 83L176.5 76L177.5 68.5L179 62.5L181 56L182 54.5L185 50H188.5H192L195 52L197.5 54L198.5 62.5V76L197.5 81.5L197 86L195 93.5L194.5 100L193.5 109.5L189.5 122.5L184 147.5L182.5 157L181.5 165C181 167.5 180.9 172.3 180.5 173.5C180.1 174.7 179.667 180.333 179.5 183L178 193L175.5 208.5L173.5 217.5L170.5 226.5L167.5 234.5L164.5 241.5L162 248.5L160.5 255.5L160 265Z" fill="#3B3B3B"/>
</svg>
