<svg width="182" height="109" viewBox="0 0 182 109" fill="none" xmlns="http://www.w3.org/2000/svg">
<path d="M0 107.5C2.16667 100.167 5.5 85 6 82C6.58124 78.5126 15 51.5 22 45.5C29 39.5 34 28.5 38.5 27.5C43 26.5 56 17.5 56.5 14C56.9 11.2 61.3333 10.1667 63.5 10L69.5 11L79.5 7L87.5 5L96.5 6L102.5 4L112.5 0L122 1L129 3.5L138.5 4.5L143.5 8V15.5L141.5 21.5L134.5 24.5H129.5L128 23L108.5 35.5L107.5 39.5L107 45.5L103.5 56L99 65.5L93.5 73.5V80L97 84.5C97.8333 84.6667 99.6 85 100 85C100.4 85 102.833 82.6667 104 81.5L108 73.5L112.5 65L117.5 56C119.167 53.1667 122.6 47.4 123 47C123.4 46.6 127.833 42.5 130 40.5L147 27.5L157 21.5L159.5 21L163 19L166.5 16.5L170.5 15L176 16.5L180 21.5L179.5 28L175.5 34.5L168 45C166.667 46.6667 163.9 50.1 163.5 50.5C163 51 156.5 58 156 58.5C155.5 59 153 63.5 153 64C153 64.4 151.333 68.8333 150.5 71L149 75.5L145 82.5C144 84.1667 141.9 87.7 141.5 88.5C141 89.5 137.5 93 137 94.5C136.5 96 133.5 99.5 133.5 101C133.5 102.5 133 106 133 106.5C133 106.9 133.457 107.948 133.79 108.615L151.384 108.762C153.05 105.428 155.5 98.9 155.5 98.5C155.5 98 158 91 159 90.5C159.8 90.1 164.143 86.6667 166.214 85L171.5 83.5L177.5 85.5L182 89.5L181.5 95.5C181 97.6667 179.9 102.2 179.5 103C179.1 103.8 179.333 106.667 179.5 108L180 109L151.384 108.762L133.79 108.615L0 107.5Z" fill="#F9F9F9" fill-opacity="0.25"/>
</svg>
